<?xml version="1.0" encoding="utf-8" standalone="no"?>
<!DOCTYPE svg PUBLIC "-//W3C//DTD SVG 1.1//EN"
  "http://www.w3.org/Graphics/SVG/1.1/DTD/svg11.dtd">
<!-- Created with matplotlib (https://matplotlib.org/) -->
<svg height="216pt" version="1.1" viewBox="0 0 288 216" width="288pt" xmlns="http://www.w3.org/2000/svg" xmlns:xlink="http://www.w3.org/1999/xlink">
 <defs>
  <style type="text/css">
*{stroke-linecap:butt;stroke-linejoin:round;}
  </style>
 </defs>
 <g id="figure_1">
  <g id="patch_1">
   <path d="M 0 216 
L 288 216 
L 288 0 
L 0 0 
z
" style="fill:#ffffff;"/>
  </g>
  <g id="axes_1">
   <g id="patch_2">
    <path d="M 36 148.23 
L 259.2 148.23 
L 259.2 25.92 
L 36 25.92 
z
" style="fill:#ffffff;"/>
   </g>
   <g id="matplotlib.axis_1">
    <g id="xtick_1">
     <g id="line2d_1">
      <defs>
       <path d="M 0 0 
L 0 3.5 
" id="me03d274002" style="stroke:#000000;stroke-width:0.8;"/>
      </defs>
      <g>
       <use style="stroke:#000000;stroke-width:0.8;" x="49.95" xlink:href="#me03d274002" y="148.23"/>
      </g>
     </g>
    </g>
    <g id="xtick_2">
     <g id="line2d_2">
      <g>
       <use style="stroke:#000000;stroke-width:0.8;" x="84.825" xlink:href="#me03d274002" y="148.23"/>
      </g>
     </g>
    </g>
    <g id="xtick_3">
     <g id="line2d_3">
      <g>
       <use style="stroke:#000000;stroke-width:0.8;" x="119.7" xlink:href="#me03d274002" y="148.23"/>
      </g>
     </g>
    </g>
    <g id="xtick_4">
     <g id="line2d_4">
      <g>
       <use style="stroke:#000000;stroke-width:0.8;" x="154.575" xlink:href="#me03d274002" y="148.23"/>
      </g>
     </g>
    </g>
    <g id="xtick_5">
     <g id="line2d_5">
      <g>
       <use style="stroke:#000000;stroke-width:0.8;" x="189.45" xlink:href="#me03d274002" y="148.23"/>
      </g>
     </g>
    </g>
    <g id="xtick_6">
     <g id="line2d_6">
      <g>
       <use style="stroke:#000000;stroke-width:0.8;" x="224.325" xlink:href="#me03d274002" y="148.23"/>
      </g>
     </g>
    </g>
    <g id="xtick_7">
     <g id="line2d_7">
      <g>
       <use style="stroke:#000000;stroke-width:0.8;" x="259.2" xlink:href="#me03d274002" y="148.23"/>
      </g>
     </g>
    </g>
   </g>
   <g id="matplotlib.axis_2">
    <g id="ytick_1">
     <g id="line2d_8">
      <defs>
       <path d="M 0 0 
L -3.5 0 
" id="m02fa282c1f" style="stroke:#000000;stroke-width:0.8;"/>
      </defs>
      <g>
       <use style="stroke:#000000;stroke-width:0.8;" x="36" xlink:href="#m02fa282c1f" y="145.877885"/>
      </g>
     </g>
     <g id="text_1">
      <!-- −75 -->
      <defs>
       <path d="M 10.59375 35.5 
L 73.1875 35.5 
L 73.1875 27.203125 
L 10.59375 27.203125 
z
" id="DejaVuSans-8722"/>
       <path d="M 8.203125 72.90625 
L 55.078125 72.90625 
L 55.078125 68.703125 
L 28.609375 0 
L 18.3125 0 
L 43.21875 64.59375 
L 8.203125 64.59375 
z
" id="DejaVuSans-55"/>
       <path d="M 10.796875 72.90625 
L 49.515625 72.90625 
L 49.515625 64.59375 
L 19.828125 64.59375 
L 19.828125 46.734375 
Q 21.96875 47.46875 24.109375 47.828125 
Q 26.265625 48.1875 28.421875 48.1875 
Q 40.625 48.1875 47.75 41.5 
Q 54.890625 34.8125 54.890625 23.390625 
Q 54.890625 11.625 47.5625 5.09375 
Q 40.234375 -1.421875 26.90625 -1.421875 
Q 22.3125 -1.421875 17.546875 -0.640625 
Q 12.796875 0.140625 7.71875 1.703125 
L 7.71875 11.625 
Q 12.109375 9.234375 16.796875 8.0625 
Q 21.484375 6.890625 26.703125 6.890625 
Q 35.15625 6.890625 40.078125 11.328125 
Q 45.015625 15.765625 45.015625 23.390625 
Q 45.015625 31 40.078125 35.4375 
Q 35.15625 39.890625 26.703125 39.890625 
Q 22.75 39.890625 18.8125 39.015625 
Q 14.890625 38.140625 10.796875 36.28125 
z
" id="DejaVuSans-53"/>
      </defs>
      <g transform="translate(12.11625 148.91726)scale(0.08 -0.08)">
       <use xlink:href="#DejaVuSans-8722"/>
       <use x="83.789062" xlink:href="#DejaVuSans-55"/>
       <use x="147.412109" xlink:href="#DejaVuSans-53"/>
      </g>
     </g>
    </g>
    <g id="ytick_2">
     <g id="line2d_9">
      <g>
       <use style="stroke:#000000;stroke-width:0.8;" x="36" xlink:href="#m02fa282c1f" y="126.276923"/>
      </g>
     </g>
     <g id="text_2">
      <!-- −50 -->
      <defs>
       <path d="M 31.78125 66.40625 
Q 24.171875 66.40625 20.328125 58.90625 
Q 16.5 51.421875 16.5 36.375 
Q 16.5 21.390625 20.328125 13.890625 
Q 24.171875 6.390625 31.78125 6.390625 
Q 39.453125 6.390625 43.28125 13.890625 
Q 47.125 21.390625 47.125 36.375 
Q 47.125 51.421875 43.28125 58.90625 
Q 39.453125 66.40625 31.78125 66.40625 
z
M 31.78125 74.21875 
Q 44.046875 74.21875 50.515625 64.515625 
Q 56.984375 54.828125 56.984375 36.375 
Q 56.984375 17.96875 50.515625 8.265625 
Q 44.046875 -1.421875 31.78125 -1.421875 
Q 19.53125 -1.421875 13.0625 8.265625 
Q 6.59375 17.96875 6.59375 36.375 
Q 6.59375 54.828125 13.0625 64.515625 
Q 19.53125 74.21875 31.78125 74.21875 
z
" id="DejaVuSans-48"/>
      </defs>
      <g transform="translate(12.11625 129.316298)scale(0.08 -0.08)">
       <use xlink:href="#DejaVuSans-8722"/>
       <use x="83.789062" xlink:href="#DejaVuSans-53"/>
       <use x="147.412109" xlink:href="#DejaVuSans-48"/>
      </g>
     </g>
    </g>
    <g id="ytick_3">
     <g id="line2d_10">
      <g>
       <use style="stroke:#000000;stroke-width:0.8;" x="36" xlink:href="#m02fa282c1f" y="106.675962"/>
      </g>
     </g>
     <g id="text_3">
      <!-- −25 -->
      <defs>
       <path d="M 19.1875 8.296875 
L 53.609375 8.296875 
L 53.609375 0 
L 7.328125 0 
L 7.328125 8.296875 
Q 12.9375 14.109375 22.625 23.890625 
Q 32.328125 33.6875 34.8125 36.53125 
Q 39.546875 41.84375 41.421875 45.53125 
Q 43.3125 49.21875 43.3125 52.78125 
Q 43.3125 58.59375 39.234375 62.25 
Q 35.15625 65.921875 28.609375 65.921875 
Q 23.96875 65.921875 18.8125 64.3125 
Q 13.671875 62.703125 7.8125 59.421875 
L 7.8125 69.390625 
Q 13.765625 71.78125 18.9375 73 
Q 24.125 74.21875 28.421875 74.21875 
Q 39.75 74.21875 46.484375 68.546875 
Q 53.21875 62.890625 53.21875 53.421875 
Q 53.21875 48.921875 51.53125 44.890625 
Q 49.859375 40.875 45.40625 35.40625 
Q 44.1875 33.984375 37.640625 27.21875 
Q 31.109375 20.453125 19.1875 8.296875 
z
" id="DejaVuSans-50"/>
      </defs>
      <g transform="translate(12.11625 109.715337)scale(0.08 -0.08)">
       <use xlink:href="#DejaVuSans-8722"/>
       <use x="83.789062" xlink:href="#DejaVuSans-50"/>
       <use x="147.412109" xlink:href="#DejaVuSans-53"/>
      </g>
     </g>
    </g>
    <g id="ytick_4">
     <g id="line2d_11">
      <g>
       <use style="stroke:#000000;stroke-width:0.8;" x="36" xlink:href="#m02fa282c1f" y="87.075"/>
      </g>
     </g>
     <g id="text_4">
      <!-- 0 -->
      <g transform="translate(23.91 90.114375)scale(0.08 -0.08)">
       <use xlink:href="#DejaVuSans-48"/>
      </g>
     </g>
    </g>
    <g id="ytick_5">
     <g id="line2d_12">
      <g>
       <use style="stroke:#000000;stroke-width:0.8;" x="36" xlink:href="#m02fa282c1f" y="67.474038"/>
      </g>
     </g>
     <g id="text_5">
      <!-- 25 -->
      <g transform="translate(18.82 70.513413)scale(0.08 -0.08)">
       <use xlink:href="#DejaVuSans-50"/>
       <use x="63.623047" xlink:href="#DejaVuSans-53"/>
      </g>
     </g>
    </g>
    <g id="ytick_6">
     <g id="line2d_13">
      <g>
       <use style="stroke:#000000;stroke-width:0.8;" x="36" xlink:href="#m02fa282c1f" y="47.873077"/>
      </g>
     </g>
     <g id="text_6">
      <!-- 50 -->
      <g transform="translate(18.82 50.912452)scale(0.08 -0.08)">
       <use xlink:href="#DejaVuSans-53"/>
       <use x="63.623047" xlink:href="#DejaVuSans-48"/>
      </g>
     </g>
    </g>
    <g id="ytick_7">
     <g id="line2d_14">
      <g>
       <use style="stroke:#000000;stroke-width:0.8;" x="36" xlink:href="#m02fa282c1f" y="28.272115"/>
      </g>
     </g>
     <g id="text_7">
      <!-- 75 -->
      <g transform="translate(18.82 31.31149)scale(0.08 -0.08)">
       <use xlink:href="#DejaVuSans-55"/>
       <use x="63.623047" xlink:href="#DejaVuSans-53"/>
      </g>
     </g>
    </g>
    <g id="text_8">
     <!-- Gradient Field ($m T / m$) -->
     <defs>
      <path d="M 59.515625 10.40625 
L 59.515625 29.984375 
L 43.40625 29.984375 
L 43.40625 38.09375 
L 69.28125 38.09375 
L 69.28125 6.78125 
Q 63.578125 2.734375 56.6875 0.65625 
Q 49.8125 -1.421875 42 -1.421875 
Q 24.90625 -1.421875 15.25 8.5625 
Q 5.609375 18.5625 5.609375 36.375 
Q 5.609375 54.25 15.25 64.234375 
Q 24.90625 74.21875 42 74.21875 
Q 49.125 74.21875 55.546875 72.453125 
Q 61.96875 70.703125 67.390625 67.28125 
L 67.390625 56.78125 
Q 61.921875 61.421875 55.765625 63.765625 
Q 49.609375 66.109375 42.828125 66.109375 
Q 29.4375 66.109375 22.71875 58.640625 
Q 16.015625 51.171875 16.015625 36.375 
Q 16.015625 21.625 22.71875 14.15625 
Q 29.4375 6.6875 42.828125 6.6875 
Q 48.046875 6.6875 52.140625 7.59375 
Q 56.25 8.5 59.515625 10.40625 
z
" id="DejaVuSans-71"/>
      <path d="M 41.109375 46.296875 
Q 39.59375 47.171875 37.8125 47.578125 
Q 36.03125 48 33.890625 48 
Q 26.265625 48 22.1875 43.046875 
Q 18.109375 38.09375 18.109375 28.8125 
L 18.109375 0 
L 9.078125 0 
L 9.078125 54.6875 
L 18.109375 54.6875 
L 18.109375 46.1875 
Q 20.953125 51.171875 25.484375 53.578125 
Q 30.03125 56 36.53125 56 
Q 37.453125 56 38.578125 55.875 
Q 39.703125 55.765625 41.0625 55.515625 
z
" id="DejaVuSans-114"/>
      <path d="M 34.28125 27.484375 
Q 23.390625 27.484375 19.1875 25 
Q 14.984375 22.515625 14.984375 16.5 
Q 14.984375 11.71875 18.140625 8.90625 
Q 21.296875 6.109375 26.703125 6.109375 
Q 34.1875 6.109375 38.703125 11.40625 
Q 43.21875 16.703125 43.21875 25.484375 
L 43.21875 27.484375 
z
M 52.203125 31.203125 
L 52.203125 0 
L 43.21875 0 
L 43.21875 8.296875 
Q 40.140625 3.328125 35.546875 0.953125 
Q 30.953125 -1.421875 24.3125 -1.421875 
Q 15.921875 -1.421875 10.953125 3.296875 
Q 6 8.015625 6 15.921875 
Q 6 25.140625 12.171875 29.828125 
Q 18.359375 34.515625 30.609375 34.515625 
L 43.21875 34.515625 
L 43.21875 35.40625 
Q 43.21875 41.609375 39.140625 45 
Q 35.0625 48.390625 27.6875 48.390625 
Q 23 48.390625 18.546875 47.265625 
Q 14.109375 46.140625 10.015625 43.890625 
L 10.015625 52.203125 
Q 14.9375 54.109375 19.578125 55.046875 
Q 24.21875 56 28.609375 56 
Q 40.484375 56 46.34375 49.84375 
Q 52.203125 43.703125 52.203125 31.203125 
z
" id="DejaVuSans-97"/>
      <path d="M 45.40625 46.390625 
L 45.40625 75.984375 
L 54.390625 75.984375 
L 54.390625 0 
L 45.40625 0 
L 45.40625 8.203125 
Q 42.578125 3.328125 38.25 0.953125 
Q 33.9375 -1.421875 27.875 -1.421875 
Q 17.96875 -1.421875 11.734375 6.484375 
Q 5.515625 14.40625 5.515625 27.296875 
Q 5.515625 40.1875 11.734375 48.09375 
Q 17.96875 56 27.875 56 
Q 33.9375 56 38.25 53.625 
Q 42.578125 51.265625 45.40625 46.390625 
z
M 14.796875 27.296875 
Q 14.796875 17.390625 18.875 11.75 
Q 22.953125 6.109375 30.078125 6.109375 
Q 37.203125 6.109375 41.296875 11.75 
Q 45.40625 17.390625 45.40625 27.296875 
Q 45.40625 37.203125 41.296875 42.84375 
Q 37.203125 48.484375 30.078125 48.484375 
Q 22.953125 48.484375 18.875 42.84375 
Q 14.796875 37.203125 14.796875 27.296875 
z
" id="DejaVuSans-100"/>
      <path d="M 9.421875 54.6875 
L 18.40625 54.6875 
L 18.40625 0 
L 9.421875 0 
z
M 9.421875 75.984375 
L 18.40625 75.984375 
L 18.40625 64.59375 
L 9.421875 64.59375 
z
" id="DejaVuSans-105"/>
      <path d="M 56.203125 29.59375 
L 56.203125 25.203125 
L 14.890625 25.203125 
Q 15.484375 15.921875 20.484375 11.0625 
Q 25.484375 6.203125 34.421875 6.203125 
Q 39.59375 6.203125 44.453125 7.46875 
Q 49.3125 8.734375 54.109375 11.28125 
L 54.109375 2.78125 
Q 49.265625 0.734375 44.1875 -0.34375 
Q 39.109375 -1.421875 33.890625 -1.421875 
Q 20.796875 -1.421875 13.15625 6.1875 
Q 5.515625 13.8125 5.515625 26.8125 
Q 5.515625 40.234375 12.765625 48.109375 
Q 20.015625 56 32.328125 56 
Q 43.359375 56 49.78125 48.890625 
Q 56.203125 41.796875 56.203125 29.59375 
z
M 47.21875 32.234375 
Q 47.125 39.59375 43.09375 43.984375 
Q 39.0625 48.390625 32.421875 48.390625 
Q 24.90625 48.390625 20.390625 44.140625 
Q 15.875 39.890625 15.1875 32.171875 
z
" id="DejaVuSans-101"/>
      <path d="M 54.890625 33.015625 
L 54.890625 0 
L 45.90625 0 
L 45.90625 32.71875 
Q 45.90625 40.484375 42.875 44.328125 
Q 39.84375 48.1875 33.796875 48.1875 
Q 26.515625 48.1875 22.3125 43.546875 
Q 18.109375 38.921875 18.109375 30.90625 
L 18.109375 0 
L 9.078125 0 
L 9.078125 54.6875 
L 18.109375 54.6875 
L 18.109375 46.1875 
Q 21.34375 51.125 25.703125 53.5625 
Q 30.078125 56 35.796875 56 
Q 45.21875 56 50.046875 50.171875 
Q 54.890625 44.34375 54.890625 33.015625 
z
" id="DejaVuSans-110"/>
      <path d="M 18.3125 70.21875 
L 18.3125 54.6875 
L 36.8125 54.6875 
L 36.8125 47.703125 
L 18.3125 47.703125 
L 18.3125 18.015625 
Q 18.3125 11.328125 20.140625 9.421875 
Q 21.96875 7.515625 27.59375 7.515625 
L 36.8125 7.515625 
L 36.8125 0 
L 27.59375 0 
Q 17.1875 0 13.234375 3.875 
Q 9.28125 7.765625 9.28125 18.015625 
L 9.28125 47.703125 
L 2.6875 47.703125 
L 2.6875 54.6875 
L 9.28125 54.6875 
L 9.28125 70.21875 
z
" id="DejaVuSans-116"/>
      <path id="DejaVuSans-32"/>
      <path d="M 9.8125 72.90625 
L 51.703125 72.90625 
L 51.703125 64.59375 
L 19.671875 64.59375 
L 19.671875 43.109375 
L 48.578125 43.109375 
L 48.578125 34.8125 
L 19.671875 34.8125 
L 19.671875 0 
L 9.8125 0 
z
" id="DejaVuSans-70"/>
      <path d="M 9.421875 75.984375 
L 18.40625 75.984375 
L 18.40625 0 
L 9.421875 0 
z
" id="DejaVuSans-108"/>
      <path d="M 31 75.875 
Q 24.46875 64.65625 21.28125 53.65625 
Q 18.109375 42.671875 18.109375 31.390625 
Q 18.109375 20.125 21.3125 9.0625 
Q 24.515625 -2 31 -13.1875 
L 23.1875 -13.1875 
Q 15.875 -1.703125 12.234375 9.375 
Q 8.59375 20.453125 8.59375 31.390625 
Q 8.59375 42.28125 12.203125 53.3125 
Q 15.828125 64.359375 23.1875 75.875 
z
" id="DejaVuSans-40"/>
      <path d="M 89.796875 33.015625 
L 83.40625 0 
L 74.421875 0 
L 80.71875 32.71875 
Q 81.109375 34.8125 81.296875 36.328125 
Q 81.5 37.84375 81.5 38.921875 
Q 81.5 43.3125 79.046875 45.75 
Q 76.609375 48.1875 72.21875 48.1875 
Q 65.671875 48.1875 60.546875 43.28125 
Q 55.421875 38.375 53.90625 30.515625 
L 47.90625 0 
L 38.921875 0 
L 45.3125 32.71875 
Q 45.703125 34.515625 45.890625 36.046875 
Q 46.09375 37.59375 46.09375 38.8125 
Q 46.09375 43.265625 43.65625 45.71875 
Q 41.21875 48.1875 36.921875 48.1875 
Q 30.28125 48.1875 25.140625 43.28125 
Q 20.015625 38.375 18.5 30.515625 
L 12.5 0 
L 3.515625 0 
L 14.203125 54.6875 
L 23.1875 54.6875 
L 21.484375 46.1875 
Q 25.140625 50.984375 30.046875 53.484375 
Q 34.96875 56 40.578125 56 
Q 46.53125 56 50.359375 52.875 
Q 54.203125 49.75 54.984375 44.1875 
Q 59.078125 49.953125 64.46875 52.96875 
Q 69.875 56 75.875 56 
Q 82.90625 56 86.734375 51.953125 
Q 90.578125 47.90625 90.578125 40.484375 
Q 90.578125 38.875 90.375 36.9375 
Q 90.1875 35.015625 89.796875 33.015625 
z
" id="DejaVuSans-Oblique-109"/>
      <path d="M 5.90625 72.90625 
L 67.578125 72.90625 
L 66.015625 64.59375 
L 39.984375 64.59375 
L 27.484375 0 
L 17.578125 0 
L 30.078125 64.59375 
L 4.296875 64.59375 
z
" id="DejaVuSans-Oblique-84"/>
      <path d="M 25.390625 72.90625 
L 33.6875 72.90625 
L 8.296875 -9.28125 
L 0 -9.28125 
z
" id="DejaVuSans-47"/>
      <path d="M 8.015625 75.875 
L 15.828125 75.875 
Q 23.140625 64.359375 26.78125 53.3125 
Q 30.421875 42.28125 30.421875 31.390625 
Q 30.421875 20.453125 26.78125 9.375 
Q 23.140625 -1.703125 15.828125 -13.1875 
L 8.015625 -13.1875 
Q 14.5 -2 17.703125 9.0625 
Q 20.90625 20.125 20.90625 31.390625 
Q 20.90625 42.671875 17.703125 53.65625 
Q 14.5 64.65625 8.015625 75.875 
z
" id="DejaVuSans-41"/>
     </defs>
     <g transform="translate(6.4525 131.275)rotate(-90)scale(0.08 -0.08)">
      <use transform="translate(0 0.015625)" xlink:href="#DejaVuSans-71"/>
      <use transform="translate(77.490234 0.015625)" xlink:href="#DejaVuSans-114"/>
      <use transform="translate(118.603516 0.015625)" xlink:href="#DejaVuSans-97"/>
      <use transform="translate(179.882812 0.015625)" xlink:href="#DejaVuSans-100"/>
      <use transform="translate(243.359375 0.015625)" xlink:href="#DejaVuSans-105"/>
      <use transform="translate(271.142578 0.015625)" xlink:href="#DejaVuSans-101"/>
      <use transform="translate(332.666016 0.015625)" xlink:href="#DejaVuSans-110"/>
      <use transform="translate(396.044922 0.015625)" xlink:href="#DejaVuSans-116"/>
      <use transform="translate(435.253906 0.015625)" xlink:href="#DejaVuSans-32"/>
      <use transform="translate(467.041016 0.015625)" xlink:href="#DejaVuSans-70"/>
      <use transform="translate(524.560547 0.015625)" xlink:href="#DejaVuSans-105"/>
      <use transform="translate(552.34375 0.015625)" xlink:href="#DejaVuSans-101"/>
      <use transform="translate(613.867188 0.015625)" xlink:href="#DejaVuSans-108"/>
      <use transform="translate(641.650391 0.015625)" xlink:href="#DejaVuSans-100"/>
      <use transform="translate(705.126953 0.015625)" xlink:href="#DejaVuSans-32"/>
      <use transform="translate(736.914062 0.015625)" xlink:href="#DejaVuSans-40"/>
      <use transform="translate(775.927734 0.015625)" xlink:href="#DejaVuSans-Oblique-109"/>
      <use transform="translate(873.339844 0.015625)" xlink:href="#DejaVuSans-Oblique-84"/>
      <use transform="translate(934.423828 0.015625)" xlink:href="#DejaVuSans-47"/>
      <use transform="translate(968.115234 0.015625)" xlink:href="#DejaVuSans-Oblique-109"/>
      <use transform="translate(1065.527344 0.015625)" xlink:href="#DejaVuSans-41"/>
     </g>
    </g>
   </g>
   <g id="line2d_15">
    <path clip-path="url(#pea155fcfab)" d="M 49.95 87.075 
" style="fill:none;stroke:#3366ff;stroke-linecap:square;stroke-width:1.5;"/>
   </g>
   <g id="line2d_16">
    <path clip-path="url(#pea155fcfab)" d="M 49.95 87.075 
" style="fill:none;stroke:#ff0000;stroke-linecap:square;stroke-width:1.5;"/>
   </g>
   <g id="line2d_17">
    <path clip-path="url(#pea155fcfab)" d="M 49.95 87.075 
" style="fill:none;stroke:#008000;stroke-linecap:square;stroke-width:1.5;"/>
   </g>
   <g id="line2d_18">
    <path clip-path="url(#pea155fcfab)" d="M 49.95 87.075 
L 53.4375 47.873077 
L 88.3125 47.873077 
L 91.8 87.075 
" style="fill:none;stroke:#3366ff;stroke-linecap:square;stroke-width:2;"/>
   </g>
   <g id="line2d_19">
    <path clip-path="url(#pea155fcfab)" d="M 102.2625 87.075 
L 105.75 47.873077 
L 140.625 47.873077 
L 144.1125 87.075 
" style="fill:none;stroke:#3366ff;stroke-linecap:square;stroke-width:2;"/>
   </g>
   <g id="line2d_20">
    <path clip-path="url(#pea155fcfab)" d="M 49.95 87.075 
L 53.4375 87.075 
L 88.3125 87.075 
L 91.8 87.075 
" style="fill:none;stroke:#ff0000;stroke-linecap:square;stroke-width:2;"/>
   </g>
   <g id="line2d_21">
    <path clip-path="url(#pea155fcfab)" d="M 102.2625 87.075 
L 105.75 87.075 
L 140.625 87.075 
L 144.1125 87.075 
" style="fill:none;stroke:#ff0000;stroke-linecap:square;stroke-width:2;"/>
   </g>
   <g id="line2d_22">
    <path clip-path="url(#pea155fcfab)" d="M 49.95 87.075 
L 53.4375 87.075 
L 88.3125 87.075 
L 91.8 87.075 
" style="fill:none;stroke:#008000;stroke-linecap:square;stroke-width:1.5;"/>
   </g>
   <g id="line2d_23">
    <path clip-path="url(#pea155fcfab)" d="M 102.2625 87.075 
L 105.75 87.075 
L 140.625 87.075 
L 144.1125 87.075 
" style="fill:none;stroke:#008000;stroke-linecap:square;stroke-width:2;"/>
   </g>
   <g id="line2d_24">
    <path clip-path="url(#pea155fcfab)" d="M 172.0125 87.075 
L 172.029943 87.075 
L 172.047385 85.437025 
L 172.099713 90.567771 
L 172.117156 91.29619 
L 172.152041 89.301558 
L 172.256697 80.438204 
L 172.291582 82.431784 
L 172.431123 95.645254 
L 172.483451 93.380407 
L 172.657877 76.945432 
L 172.710205 78.976468 
L 172.919516 98.556974 
L 172.989287 95.274428 
L 173.216041 74.392254 
L 173.268369 76.416243 
L 173.530008 100.869644 
L 173.617221 96.652121 
L 173.87886 72.25715 
L 173.931188 73.89667 
L 174.088172 91.17974 
L 174.245156 102.851424 
L 174.280041 102.237425 
L 174.384696 93.648993 
L 174.628893 70.433743 
L 174.663778 70.743678 
L 174.750992 76.497954 
L 175.047516 104.607184 
L 175.099844 103.434483 
L 175.239385 90.023843 
L 175.483582 68.722985 
L 175.501024 68.872399 
L 175.588237 73.592375 
L 175.93709 106.207114 
L 176.00686 103.974158 
L 176.181286 85.119468 
L 176.408041 67.192524 
L 176.425483 67.358009 
L 176.512696 71.873032 
L 176.896434 107.681155 
L 176.983647 104.463833 
L 177.192958 80.641079 
L 177.40227 65.770354 
L 177.419713 65.931337 
L 177.506926 70.200052 
L 177.925549 109.05341 
L 178.012762 105.922666 
L 178.204631 84.767156 
L 178.46627 64.450224 
L 178.518598 65.727032 
L 178.658139 77.644011 
L 179.006991 110.340857 
L 179.024434 110.309489 
L 179.094204 108.009342 
L 179.26863 90.405859 
L 179.582598 63.173687 
L 179.634925 64.155453 
L 179.757024 73.214476 
L 180.158204 111.561879 
L 180.210532 110.893112 
L 180.33263 102.577692 
L 180.768696 61.984872 
L 180.821024 63.071379 
L 180.960565 73.934382 
L 181.379188 112.747049 
L 181.39663 112.610815 
L 181.483843 109.010856 
L 181.693155 86.138704 
L 181.989679 60.884308 
L 182.007122 60.843527 
L 182.024565 60.999338 
L 182.111778 64.631984 
L 182.321089 87.386313 
L 182.635056 113.854866 
L 182.669942 113.610403 
L 182.757155 109.739829 
L 182.966466 86.852046 
L 183.280433 59.79789 
L 183.297876 59.745375 
L 183.315319 59.88163 
L 183.402532 63.313467 
L 183.5944 83.250455 
L 183.943253 114.859804 
L 183.960695 114.939942 
L 183.978138 114.834851 
L 184.065351 111.600959 
L 184.25722 92.068479 
L 184.623515 58.748751 
L 184.640958 58.691628 
L 184.6584 58.816323 
L 184.745613 62.095951 
L 184.937482 81.542126 
L 185.303777 115.795991 
L 185.32122 115.958323 
L 185.356105 115.747453 
L 185.443318 112.181029 
L 185.65263 90.248956 
L 186.001482 57.928946 
L 186.036367 57.681505 
L 186.071253 58.135059 
L 186.175908 63.506841 
L 186.437548 93.741497 
L 186.71663 116.724027 
L 186.751515 116.962245 
L 186.7864 116.511012 
L 186.891056 111.207196 
L 187.152695 81.13294 
L 187.44922 56.848585 
L 187.466662 56.703694 
L 187.501548 56.923361 
L 187.588761 60.369078 
L 187.78063 79.505367 
L 188.18181 117.698998 
L 188.216695 117.92715 
L 188.25158 117.487301 
L 188.356236 112.330049 
L 188.600433 84.867098 
L 188.931843 55.972165 
L 188.966728 55.752092 
L 189.001613 56.190011 
L 189.106269 61.287937 
L 189.350465 88.576544 
L 189.681875 118.44237 
L 189.71676 118.86404 
L 189.769088 118.281526 
L 189.891187 111.538309 
L 190.187711 76.565342 
L 190.466793 55.018106 
L 190.501678 54.835709 
L 190.536564 55.292426 
L 190.641219 60.341142 
L 190.885416 87.353097 
L 191.234269 119.300654 
L 191.269154 119.763143 
L 191.321482 119.275424 
L 191.426137 114.202413 
L 191.670334 87.272215 
L 192.019186 54.616125 
L 192.071514 53.924432 
L 192.123842 54.630127 
L 192.245941 61.430434 
L 192.542465 96.253673 
L 192.83899 120.322248 
L 192.873875 120.663879 
L 192.926203 120.025977 
L 193.048301 113.430275 
L 193.327383 81.064912 
L 193.64135 53.663633 
L 193.693678 53.053403 
L 193.728563 53.403866 
L 193.833219 57.974503 
L 194.059973 81.706149 
L 194.461153 120.775811 
L 194.513481 121.524441 
L 194.565809 120.928103 
L 194.687907 114.538467 
L 194.949547 84.792229 
L 195.298399 52.9029 
L 195.350727 52.201038 
L 195.403055 52.82796 
L 195.525153 59.226492 
L 195.786793 88.88921 
L 196.135645 121.433369 
L 196.205416 122.354406 
L 196.240301 121.939635 
L 196.344956 117.307936 
L 196.571711 93.816237 
L 197.007776 51.8763 
L 197.060104 51.378645 
L 197.094989 51.768677 
L 197.199645 56.293477 
L 197.426399 79.543742 
L 197.862465 122.418863 
L 197.914792 123.182631 
L 197.96712 122.663022 
L 198.089219 116.651686 
L 198.350858 87.662293 
L 198.734596 51.412993 
L 198.786923 50.574402 
L 198.839251 51.004776 
L 198.943907 55.565923 
L 199.170661 78.665488 
L 199.624169 123.261041 
L 199.676497 123.987482 
L 199.728825 123.458222 
L 199.850923 117.523752 
L 200.09512 91.073178 
L 200.513743 50.626531 
L 200.583513 49.778498 
L 200.618399 50.182726 
L 200.723054 54.610106 
L 200.949808 77.335813 
L 201.420759 123.996574 
L 201.473087 124.767224 
L 201.525415 124.30837 
L 201.630071 119.804277 
L 201.856825 97.066528 
L 202.327776 49.942143 
L 202.397546 48.989828 
L 202.432431 49.324942 
L 202.537087 53.49327 
L 202.746398 73.521713 
L 203.269677 125.067197 
L 203.322005 125.539872 
L 203.35689 125.184871 
L 203.461546 120.99005 
L 203.670857 101.011386 
L 204.194136 48.867533 
L 204.246464 48.224796 
L 204.298792 48.77565 
L 204.42089 54.536857 
L 204.665087 80.340772 
L 205.118595 125.212088 
L 205.188365 126.30121 
L 205.240693 125.740343 
L 205.362792 119.997801 
L 205.606988 94.302999 
L 206.060496 48.822089 
L 206.14771 47.489416 
L 206.182595 47.865906 
L 206.287251 52.036541 
L 206.496562 71.734258 
L 207.054726 126.624542 
L 207.107054 127.028551 
L 207.141939 126.652752 
L 207.246595 122.510967 
L 207.455906 102.933079 
L 208.01407 47.333276 
L 208.066398 46.742973 
L 208.118726 47.302713 
L 208.240824 52.928074 
L 208.485021 78.227262 
L 208.973414 126.738134 
L 209.043185 127.76887 
L 209.095513 127.213476 
L 209.217611 121.633845 
L 209.461808 96.473795 
L 209.950201 47.309486 
L 210.037414 46.036039 
L 210.072299 46.404269 
L 210.176955 50.447833 
L 210.386267 69.655965 
L 210.979316 128.086367 
L 211.031644 128.469011 
L 211.066529 128.101358 
L 211.171184 124.083751 
L 211.380496 104.987068 
L 211.990988 45.562247 
L 212.025873 45.314338 
L 212.060758 45.560783 
L 212.165414 49.206515 
L 212.374725 67.684733 
L 213.00266 128.948124 
L 213.037545 129.185153 
L 213.07243 128.931941 
L 213.177086 125.289997 
L 213.386397 106.891062 
L 214.014332 44.971555 
L 214.049217 44.628423 
L 214.101545 45.024895 
L 214.206201 49.02505 
L 214.415512 67.882127 
L 215.043446 129.547381 
L 215.078332 129.869036 
L 215.130659 129.447646 
L 215.252758 124.362399 
L 215.479512 102.457905 
L 216.055118 44.763383 
L 216.124889 43.937458 
L 216.159774 44.241306 
L 216.26443 47.962475 
L 216.473741 66.267911 
L 217.136561 130.404367 
L 217.171446 130.545618 
L 217.206331 130.212186 
L 217.310987 126.426943 
L 217.520299 108.093008 
L 218.183118 43.47723 
L 218.218003 43.259107 
L 218.252889 43.512156 
L 218.357544 47.044915 
L 218.566856 64.930163 
L 219.247118 131.051714 
L 219.282003 131.219899 
L 219.316889 130.920511 
L 219.421544 127.274245 
L 219.630856 109.282179 
L 220.311118 42.820184 
L 220.346003 42.594738 
L 220.380888 42.833455 
L 220.485544 46.284598 
L 220.677413 62.004656 
L 221.410003 131.857089 
L 221.427446 131.877721 
L 221.444888 131.783102 
L 221.532101 129.60061 
L 221.706528 117.393319 
L 222.508888 41.941865 
L 222.561216 42.511032 
L 222.683314 47.719478 
L 222.910069 69.297513 
L 223.538003 131.859556 
L 223.590331 132.521882 
L 223.642659 132.163526 
L 223.747314 128.441016 
L 223.956626 110.583102 
L 224.671773 41.42258 
L 224.706658 41.309427 
L 224.741544 41.64713 
L 224.846199 45.309198 
L 225.055511 63.014153 
L 225.788101 133.117849 
L 225.805544 133.173687 
L 225.840429 132.949384 
L 225.945085 129.633361 
L 226.136953 114.389782 
L 226.921871 40.659642 
L 226.974199 41.181313 
L 227.096298 46.182467 
L 227.323052 67.234141 
L 227.985871 133.20198 
L 228.038199 133.800134 
L 228.090527 133.405169 
L 228.212625 128.709305 
L 228.439379 108.130074 
L 229.119642 40.563316 
L 229.171969 40.032692 
L 229.224297 40.488726 
L 229.346396 45.296054 
L 229.57315 65.964489 
L 230.253412 133.345201 
L 230.30574 131.654998 
L 230.462723 115.046876 
L 230.933674 66.795303 
L 230.986002 65.988007 
L 231.03833 66.616379 
L 231.160428 72.748401 
L 231.404625 87.075 
L 231.404625 87.075 
" style="fill:none;stroke:#3366ff;stroke-linecap:square;stroke-width:0.5;"/>
   </g>
   <g id="line2d_25">
    <path clip-path="url(#pea155fcfab)" d="M 172.0125 87.075 
L 172.029943 87.075 
L 172.08227 84.425516 
L 172.117156 87.791707 
L 172.169484 92.442391 
L 172.221811 89.805063 
L 172.34391 79.600562 
L 172.378795 81.389194 
L 172.535779 96.239073 
L 172.605549 92.98697 
L 172.779975 76.490204 
L 172.832303 78.044565 
L 173.059057 98.928081 
L 173.14627 94.50076 
L 173.373024 74.093196 
L 173.425352 76.031534 
L 173.704434 101.103287 
L 173.791647 96.658886 
L 174.053287 72.088154 
L 174.123057 74.260322 
L 174.437024 102.985685 
L 174.54168 97.917392 
L 174.838205 70.30567 
L 174.907975 72.409608 
L 175.082401 91.406274 
L 175.256828 104.643233 
L 175.291713 104.317758 
L 175.396369 97.19954 
L 175.710336 68.705046 
L 175.745221 69.352796 
L 175.849877 77.038442 
L 176.163844 106.193912 
L 176.198729 105.803269 
L 176.303385 98.938453 
L 176.652237 67.234802 
L 176.704565 68.542275 
L 176.844106 81.040321 
L 177.140631 107.61505 
L 177.158073 107.548637 
L 177.227844 104.933856 
L 177.419713 84.271316 
L 177.663909 65.866444 
L 177.716237 67.12711 
L 177.855778 79.111784 
L 178.187188 108.948229 
L 178.204631 108.85193 
L 178.274401 106.25939 
L 178.448827 88.238665 
L 178.727909 64.582154 
L 178.745352 64.609518 
L 178.815122 66.879387 
L 178.989548 84.254562 
L 179.303516 110.179674 
L 179.373286 108.119162 
L 179.53027 93.41881 
L 179.879122 63.365027 
L 179.93145 64.545512 
L 180.070991 75.660931 
L 180.454729 111.364551 
L 180.489614 111.152293 
L 180.576827 107.182211 
L 180.803581 81.862276 
L 181.06522 62.192608 
L 181.100106 62.521128 
L 181.204761 68.040822 
L 181.693155 112.5092 
L 181.780368 109.799858 
L 181.954794 92.875784 
L 182.303646 61.166814 
L 182.321089 61.082769 
L 182.338532 61.18949 
L 182.425745 64.505342 
L 182.617614 84.212887 
L 182.949023 113.514468 
L 182.966466 113.603796 
L 183.001351 113.222444 
L 183.106007 107.816858 
L 183.385089 75.636972 
L 183.629286 60.025646 
L 183.681614 60.974903 
L 183.803712 69.061093 
L 184.292105 114.637898 
L 184.361876 113.411989 
L 184.501417 103.203616 
L 184.98981 59.018812 
L 185.007253 59.191195 
L 185.094466 62.621587 
L 185.286335 81.898908 
L 185.65263 115.460936 
L 185.670072 115.629279 
L 185.7224 115.094792 
L 185.827056 109.566938 
L 186.106138 77.526919 
L 186.367777 58.118397 
L 186.38522 58.013893 
L 186.420105 58.316425 
L 186.524761 63.159499 
L 186.768957 90.140756 
L 187.082925 116.444373 
L 187.100367 116.601722 
L 187.152695 116.068245 
L 187.274794 109.273168 
L 187.623646 68.974372 
L 187.832957 57.074908 
L 187.8504 57.085657 
L 187.92017 58.764601 
L 188.077154 71.010071 
L 188.58299 117.555604 
L 188.600433 117.489516 
L 188.670203 115.618936 
L 188.827187 103.142026 
L 189.333023 56.148187 
L 189.350465 56.163555 
L 189.420236 57.812727 
L 189.577219 69.796075 
L 190.100498 118.456782 
L 190.135383 118.253517 
L 190.222596 115.044371 
L 190.414465 96.938496 
L 190.850531 55.530896 
L 190.885416 55.237987 
L 190.920301 55.567541 
L 191.024957 60.16321 
L 191.251711 83.951245 
L 191.635449 118.997126 
L 191.670334 119.349918 
L 191.722662 118.728985 
L 191.84476 112.180749 
L 192.123842 80.267114 
L 192.437809 54.659732 
L 192.472695 54.364993 
L 192.50758 54.676192 
L 192.612236 59.129306 
L 192.83899 82.521219 
L 193.24017 119.781245 
L 193.275055 120.200657 
L 193.327383 119.709243 
L 193.449481 113.557529 
L 193.711121 84.36689 
L 194.059973 53.951614 
L 194.094858 53.528716 
L 194.147186 54.000863 
L 194.251842 58.793319 
L 194.478596 82.390064 
L 194.879776 120.373059 
L 194.932104 121.05199 
L 194.984432 120.420587 
L 195.10653 114.085712 
L 195.385612 82.687686 
L 195.717022 53.449985 
L 195.76935 52.69066 
L 195.821678 53.225968 
L 195.943776 59.302268 
L 196.205416 88.140503 
L 196.571711 121.212857 
L 196.624038 121.871221 
L 196.676366 121.249878 
L 196.798465 115.042516 
L 197.060104 86.165409 
L 197.426399 52.686826 
L 197.478727 51.887329 
L 197.531055 52.352715 
L 197.63571 56.963177 
L 197.862465 79.93364 
L 198.29853 121.908167 
L 198.350858 122.664745 
L 198.403186 122.17036 
L 198.525284 116.334664 
L 198.769481 90.24995 
L 199.170661 52.071367 
L 199.240432 51.08788 
L 199.275317 51.420815 
L 199.379973 55.629869 
L 199.589284 75.735674 
L 200.077677 122.913833 
L 200.130005 123.452114 
L 200.164891 123.130199 
L 200.269546 118.985262 
L 200.478858 99.054907 
L 200.984694 50.695972 
L 201.019579 50.32088 
L 201.071907 50.768755 
L 201.176563 55.197465 
L 201.403317 77.54934 
L 201.874267 123.402718 
L 201.944038 124.204207 
L 201.978923 123.805549 
L 202.083579 119.505327 
L 202.310333 97.422367 
L 202.798726 50.207833 
L 202.851054 49.553728 
L 202.903382 50.08688 
L 203.02548 55.780732 
L 203.269677 81.257767 
L 203.705743 123.749822 
L 203.775513 124.964173 
L 203.827841 124.505557 
L 203.949939 119.014585 
L 204.194136 93.859614 
L 204.647644 49.858154 
L 204.717415 48.808895 
L 204.769743 49.378872 
L 204.891841 55.071127 
L 205.136038 80.373514 
L 205.589546 124.552006 
L 205.659316 125.703415 
L 205.711644 125.223228 
L 205.833742 119.764873 
L 206.077939 94.823145 
L 206.54889 49.086296 
L 206.61866 48.079687 
L 206.670988 48.656501 
L 206.793087 54.286745 
L 207.037283 79.348257 
L 207.508234 125.307439 
L 207.578005 126.426556 
L 207.630332 125.946574 
L 207.752431 120.56398 
L 207.996627 95.883805 
L 208.485021 48.348127 
L 208.554791 47.363927 
L 208.607119 47.933754 
L 208.729218 53.475865 
L 208.973414 78.267307 
L 209.461808 126.038727 
L 209.531578 127.136096 
L 209.583906 126.66296 
L 209.706004 121.366804 
L 209.950201 96.959428 
L 210.456037 47.623822 
L 210.525807 46.66085 
L 210.578135 47.224004 
L 210.700234 52.682264 
L 210.94443 77.210115 
L 211.450266 126.765466 
L 211.520037 127.833727 
L 211.572365 127.360748 
L 211.694463 122.132928 
L 211.93866 97.973756 
L 212.461938 46.896204 
L 212.531709 45.970056 
L 212.584037 46.539371 
L 212.706135 51.945109 
L 212.950332 76.250382 
L 213.47361 127.504445 
L 213.543381 128.520502 
L 213.595709 128.029184 
L 213.717807 122.82596 
L 213.962004 98.856141 
L 214.485282 46.65897 
L 214.572496 45.292106 
L 214.607381 45.573612 
L 214.712037 49.206113 
L 214.921348 67.228727 
L 215.566725 128.966514 
L 215.60161 129.19563 
L 215.636495 128.953823 
L 215.741151 125.457305 
L 215.950463 107.707504 
L 216.613282 44.771541 
L 216.648168 44.630452 
L 216.683053 44.956454 
L 216.787708 48.674649 
L 216.99702 66.690239 
L 217.65984 129.691227 
L 217.694725 129.854056 
L 217.72961 129.553335 
L 217.834266 125.928436 
L 218.043577 108.118788 
L 218.706397 44.257835 
L 218.741282 43.9669 
L 218.79361 44.392741 
L 218.915708 49.302271 
L 219.142462 70.430831 
L 219.752954 129.896288 
L 219.805282 130.507857 
L 219.85761 130.093131 
L 219.979708 125.236177 
L 220.206462 104.243878 
L 220.816954 44.117374 
L 220.886724 43.317405 
L 220.92161 43.596456 
L 221.026265 47.099976 
L 221.235577 64.533257 
L 221.933282 130.993208 
L 221.968167 131.151326 
L 222.003052 130.859503 
L 222.107708 127.337887 
L 222.317019 109.938699 
L 223.032167 42.741381 
L 223.049609 42.67576 
L 223.084495 42.879692 
L 223.18915 46.128419 
L 223.381019 61.202095 
L 224.148495 131.790392 
L 224.200822 131.264987 
L 224.322921 126.269898 
L 224.549675 105.357823 
L 225.177609 43.011858 
L 225.24738 42.047465 
L 225.299708 42.478322 
L 225.421806 47.23922 
L 225.64856 67.778608 
L 226.293937 131.581259 
L 226.363707 132.415903 
L 226.416035 131.895344 
L 226.538134 126.960735 
L 226.764888 106.252288 
L 227.410265 42.320287 
L 227.480035 41.424341 
L 227.532363 41.891067 
L 227.654461 46.682433 
L 227.881216 67.138811 
L 228.544035 132.313257 
L 228.613806 133.027008 
L 228.648691 132.73711 
L 228.753347 129.32604 
L 228.962658 112.449382 
L 229.730133 40.83584 
L 229.747576 40.816731 
L 229.765019 40.904867 
L 229.852232 42.938115 
L 230.026658 54.37482 
L 230.480166 96.384768 
L 230.567379 94.240705 
L 230.689478 87.896379 
L 230.724363 90.159004 
L 231.03833 125.330348 
L 231.090658 123.283378 
L 231.404625 87.075 
L 231.404625 87.075 
" style="fill:none;stroke:#ff0000;stroke-linecap:square;stroke-width:0.5;"/>
   </g>
   <g id="line2d_26">
    <path clip-path="url(#pea155fcfab)" d="M 172.0125 87.075 
L 231.404625 87.075 
L 231.404625 87.075 
" style="fill:none;stroke:#008000;stroke-linecap:square;stroke-width:0.5;"/>
   </g>
   <g id="patch_3">
    <path d="M 36 148.23 
L 36 25.92 
" style="fill:none;stroke:#000000;stroke-linecap:square;stroke-linejoin:miter;stroke-width:0.8;"/>
   </g>
   <g id="patch_4">
    <path d="M 259.2 148.23 
L 259.2 25.92 
" style="fill:none;stroke:#000000;stroke-linecap:square;stroke-linejoin:miter;stroke-width:0.8;"/>
   </g>
   <g id="patch_5">
    <path d="M 36 148.23 
L 259.2 148.23 
" style="fill:none;stroke:#000000;stroke-linecap:square;stroke-linejoin:miter;stroke-width:0.8;"/>
   </g>
   <g id="patch_6">
    <path d="M 36 25.92 
L 259.2 25.92 
" style="fill:none;stroke:#000000;stroke-linecap:square;stroke-linejoin:miter;stroke-width:0.8;"/>
   </g>
   <g id="legend_1">
    <g id="line2d_27">
     <path d="M 43.2 116.265 
L 59.2 116.265 
" style="fill:none;stroke:#3366ff;stroke-linecap:square;stroke-width:1.5;"/>
    </g>
    <g id="line2d_28"/>
    <g id="text_9">
     <!-- $x$ -->
     <defs>
      <path d="M 60.015625 54.6875 
L 34.90625 27.875 
L 50.296875 0 
L 39.984375 0 
L 28.421875 21.6875 
L 8.296875 0 
L -2.59375 0 
L 24.3125 28.8125 
L 10.015625 54.6875 
L 20.3125 54.6875 
L 30.8125 34.90625 
L 49.125 54.6875 
z
" id="DejaVuSans-Oblique-120"/>
     </defs>
     <g transform="translate(65.6 119.065)scale(0.08 -0.08)">
      <use transform="translate(0 0.3125)" xlink:href="#DejaVuSans-Oblique-120"/>
     </g>
    </g>
    <g id="line2d_29">
     <path d="M 43.2 126.4075 
L 59.2 126.4075 
" style="fill:none;stroke:#ff0000;stroke-linecap:square;stroke-width:1.5;"/>
    </g>
    <g id="line2d_30"/>
    <g id="text_10">
     <!-- $y$ -->
     <defs>
      <path d="M 24.8125 -5.078125 
Q 18.5625 -15.578125 14.625 -18.1875 
Q 10.6875 -20.796875 4.59375 -20.796875 
L -2.484375 -20.796875 
L -0.984375 -13.28125 
L 4.203125 -13.28125 
Q 7.953125 -13.28125 10.59375 -11.234375 
Q 13.234375 -9.1875 16.5 -3.21875 
L 19.28125 2 
L 7.171875 54.6875 
L 16.703125 54.6875 
L 25.78125 12.796875 
L 50.875 54.6875 
L 60.296875 54.6875 
z
" id="DejaVuSans-Oblique-121"/>
     </defs>
     <g transform="translate(65.6 129.2075)scale(0.08 -0.08)">
      <use transform="translate(0 0.3125)" xlink:href="#DejaVuSans-Oblique-121"/>
     </g>
    </g>
    <g id="line2d_31">
     <path d="M 43.2 136.56625 
L 59.2 136.56625 
" style="fill:none;stroke:#008000;stroke-linecap:square;stroke-width:1.5;"/>
    </g>
    <g id="line2d_32"/>
    <g id="text_11">
     <!-- $z$ -->
     <defs>
      <path d="M 11.625 54.6875 
L 54.296875 54.6875 
L 52.6875 46.484375 
L 11.53125 7.171875 
L 45.515625 7.171875 
L 44.09375 0 
L -0.296875 0 
L 1.3125 8.203125 
L 42.484375 47.515625 
L 10.203125 47.515625 
z
" id="DejaVuSans-Oblique-122"/>
     </defs>
     <g transform="translate(65.6 139.36625)scale(0.08 -0.08)">
      <use transform="translate(0 0.3125)" xlink:href="#DejaVuSans-Oblique-122"/>
     </g>
    </g>
   </g>
  </g>
  <g id="axes_2">
   <g id="patch_7">
    <path d="M 36 189 
L 259.2 189 
L 259.2 148.23 
L 36 148.23 
z
" style="fill:#ffffff;"/>
   </g>
   <g id="matplotlib.axis_3">
    <g id="xtick_8">
     <g id="line2d_33">
      <g>
       <use style="stroke:#000000;stroke-width:0.8;" x="49.95" xlink:href="#me03d274002" y="189"/>
      </g>
     </g>
     <g id="text_12">
      <!-- 0 -->
      <g transform="translate(47.405 202.07875)scale(0.08 -0.08)">
       <use xlink:href="#DejaVuSans-48"/>
      </g>
     </g>
    </g>
    <g id="xtick_9">
     <g id="line2d_34">
      <g>
       <use style="stroke:#000000;stroke-width:0.8;" x="84.825" xlink:href="#me03d274002" y="189"/>
      </g>
     </g>
     <g id="text_13">
      <!-- 20 -->
      <g transform="translate(79.735 202.07875)scale(0.08 -0.08)">
       <use xlink:href="#DejaVuSans-50"/>
       <use x="63.623047" xlink:href="#DejaVuSans-48"/>
      </g>
     </g>
    </g>
    <g id="xtick_10">
     <g id="line2d_35">
      <g>
       <use style="stroke:#000000;stroke-width:0.8;" x="119.7" xlink:href="#me03d274002" y="189"/>
      </g>
     </g>
     <g id="text_14">
      <!-- 40 -->
      <defs>
       <path d="M 37.796875 64.3125 
L 12.890625 25.390625 
L 37.796875 25.390625 
z
M 35.203125 72.90625 
L 47.609375 72.90625 
L 47.609375 25.390625 
L 58.015625 25.390625 
L 58.015625 17.1875 
L 47.609375 17.1875 
L 47.609375 0 
L 37.796875 0 
L 37.796875 17.1875 
L 4.890625 17.1875 
L 4.890625 26.703125 
z
" id="DejaVuSans-52"/>
      </defs>
      <g transform="translate(114.61 202.07875)scale(0.08 -0.08)">
       <use xlink:href="#DejaVuSans-52"/>
       <use x="63.623047" xlink:href="#DejaVuSans-48"/>
      </g>
     </g>
    </g>
    <g id="xtick_11">
     <g id="line2d_36">
      <g>
       <use style="stroke:#000000;stroke-width:0.8;" x="154.575" xlink:href="#me03d274002" y="189"/>
      </g>
     </g>
     <g id="text_15">
      <!-- 60 -->
      <defs>
       <path d="M 33.015625 40.375 
Q 26.375 40.375 22.484375 35.828125 
Q 18.609375 31.296875 18.609375 23.390625 
Q 18.609375 15.53125 22.484375 10.953125 
Q 26.375 6.390625 33.015625 6.390625 
Q 39.65625 6.390625 43.53125 10.953125 
Q 47.40625 15.53125 47.40625 23.390625 
Q 47.40625 31.296875 43.53125 35.828125 
Q 39.65625 40.375 33.015625 40.375 
z
M 52.59375 71.296875 
L 52.59375 62.3125 
Q 48.875 64.0625 45.09375 64.984375 
Q 41.3125 65.921875 37.59375 65.921875 
Q 27.828125 65.921875 22.671875 59.328125 
Q 17.53125 52.734375 16.796875 39.40625 
Q 19.671875 43.65625 24.015625 45.921875 
Q 28.375 48.1875 33.59375 48.1875 
Q 44.578125 48.1875 50.953125 41.515625 
Q 57.328125 34.859375 57.328125 23.390625 
Q 57.328125 12.15625 50.6875 5.359375 
Q 44.046875 -1.421875 33.015625 -1.421875 
Q 20.359375 -1.421875 13.671875 8.265625 
Q 6.984375 17.96875 6.984375 36.375 
Q 6.984375 53.65625 15.1875 63.9375 
Q 23.390625 74.21875 37.203125 74.21875 
Q 40.921875 74.21875 44.703125 73.484375 
Q 48.484375 72.75 52.59375 71.296875 
z
" id="DejaVuSans-54"/>
      </defs>
      <g transform="translate(149.485 202.07875)scale(0.08 -0.08)">
       <use xlink:href="#DejaVuSans-54"/>
       <use x="63.623047" xlink:href="#DejaVuSans-48"/>
      </g>
     </g>
    </g>
    <g id="xtick_12">
     <g id="line2d_37">
      <g>
       <use style="stroke:#000000;stroke-width:0.8;" x="189.45" xlink:href="#me03d274002" y="189"/>
      </g>
     </g>
     <g id="text_16">
      <!-- 80 -->
      <defs>
       <path d="M 31.78125 34.625 
Q 24.75 34.625 20.71875 30.859375 
Q 16.703125 27.09375 16.703125 20.515625 
Q 16.703125 13.921875 20.71875 10.15625 
Q 24.75 6.390625 31.78125 6.390625 
Q 38.8125 6.390625 42.859375 10.171875 
Q 46.921875 13.96875 46.921875 20.515625 
Q 46.921875 27.09375 42.890625 30.859375 
Q 38.875 34.625 31.78125 34.625 
z
M 21.921875 38.8125 
Q 15.578125 40.375 12.03125 44.71875 
Q 8.5 49.078125 8.5 55.328125 
Q 8.5 64.0625 14.71875 69.140625 
Q 20.953125 74.21875 31.78125 74.21875 
Q 42.671875 74.21875 48.875 69.140625 
Q 55.078125 64.0625 55.078125 55.328125 
Q 55.078125 49.078125 51.53125 44.71875 
Q 48 40.375 41.703125 38.8125 
Q 48.828125 37.15625 52.796875 32.3125 
Q 56.78125 27.484375 56.78125 20.515625 
Q 56.78125 9.90625 50.3125 4.234375 
Q 43.84375 -1.421875 31.78125 -1.421875 
Q 19.734375 -1.421875 13.25 4.234375 
Q 6.78125 9.90625 6.78125 20.515625 
Q 6.78125 27.484375 10.78125 32.3125 
Q 14.796875 37.15625 21.921875 38.8125 
z
M 18.3125 54.390625 
Q 18.3125 48.734375 21.84375 45.5625 
Q 25.390625 42.390625 31.78125 42.390625 
Q 38.140625 42.390625 41.71875 45.5625 
Q 45.3125 48.734375 45.3125 54.390625 
Q 45.3125 60.0625 41.71875 63.234375 
Q 38.140625 66.40625 31.78125 66.40625 
Q 25.390625 66.40625 21.84375 63.234375 
Q 18.3125 60.0625 18.3125 54.390625 
z
" id="DejaVuSans-56"/>
      </defs>
      <g transform="translate(184.36 202.07875)scale(0.08 -0.08)">
       <use xlink:href="#DejaVuSans-56"/>
       <use x="63.623047" xlink:href="#DejaVuSans-48"/>
      </g>
     </g>
    </g>
    <g id="xtick_13">
     <g id="line2d_38">
      <g>
       <use style="stroke:#000000;stroke-width:0.8;" x="224.325" xlink:href="#me03d274002" y="189"/>
      </g>
     </g>
     <g id="text_17">
      <!-- 100 -->
      <defs>
       <path d="M 12.40625 8.296875 
L 28.515625 8.296875 
L 28.515625 63.921875 
L 10.984375 60.40625 
L 10.984375 69.390625 
L 28.421875 72.90625 
L 38.28125 72.90625 
L 38.28125 8.296875 
L 54.390625 8.296875 
L 54.390625 0 
L 12.40625 0 
z
" id="DejaVuSans-49"/>
      </defs>
      <g transform="translate(216.69 202.07875)scale(0.08 -0.08)">
       <use xlink:href="#DejaVuSans-49"/>
       <use x="63.623047" xlink:href="#DejaVuSans-48"/>
       <use x="127.246094" xlink:href="#DejaVuSans-48"/>
      </g>
     </g>
    </g>
    <g id="xtick_14">
     <g id="line2d_39">
      <g>
       <use style="stroke:#000000;stroke-width:0.8;" x="259.2" xlink:href="#me03d274002" y="189"/>
      </g>
     </g>
     <g id="text_18">
      <!-- 120 -->
      <g transform="translate(251.565 202.07875)scale(0.08 -0.08)">
       <use xlink:href="#DejaVuSans-49"/>
       <use x="63.623047" xlink:href="#DejaVuSans-50"/>
       <use x="127.246094" xlink:href="#DejaVuSans-48"/>
      </g>
     </g>
    </g>
    <g id="text_19">
     <!-- Time (ms) -->
     <defs>
      <path d="M -0.296875 72.90625 
L 61.375 72.90625 
L 61.375 64.59375 
L 35.5 64.59375 
L 35.5 0 
L 25.59375 0 
L 25.59375 64.59375 
L -0.296875 64.59375 
z
" id="DejaVuSans-84"/>
      <path d="M 52 44.1875 
Q 55.375 50.25 60.0625 53.125 
Q 64.75 56 71.09375 56 
Q 79.640625 56 84.28125 50.015625 
Q 88.921875 44.046875 88.921875 33.015625 
L 88.921875 0 
L 79.890625 0 
L 79.890625 32.71875 
Q 79.890625 40.578125 77.09375 44.375 
Q 74.3125 48.1875 68.609375 48.1875 
Q 61.625 48.1875 57.5625 43.546875 
Q 53.515625 38.921875 53.515625 30.90625 
L 53.515625 0 
L 44.484375 0 
L 44.484375 32.71875 
Q 44.484375 40.625 41.703125 44.40625 
Q 38.921875 48.1875 33.109375 48.1875 
Q 26.21875 48.1875 22.15625 43.53125 
Q 18.109375 38.875 18.109375 30.90625 
L 18.109375 0 
L 9.078125 0 
L 9.078125 54.6875 
L 18.109375 54.6875 
L 18.109375 46.1875 
Q 21.1875 51.21875 25.484375 53.609375 
Q 29.78125 56 35.6875 56 
Q 41.65625 56 45.828125 52.96875 
Q 50 49.953125 52 44.1875 
z
" id="DejaVuSans-109"/>
      <path d="M 44.28125 53.078125 
L 44.28125 44.578125 
Q 40.484375 46.53125 36.375 47.5 
Q 32.28125 48.484375 27.875 48.484375 
Q 21.1875 48.484375 17.84375 46.4375 
Q 14.5 44.390625 14.5 40.28125 
Q 14.5 37.15625 16.890625 35.375 
Q 19.28125 33.59375 26.515625 31.984375 
L 29.59375 31.296875 
Q 39.15625 29.25 43.1875 25.515625 
Q 47.21875 21.78125 47.21875 15.09375 
Q 47.21875 7.46875 41.1875 3.015625 
Q 35.15625 -1.421875 24.609375 -1.421875 
Q 20.21875 -1.421875 15.453125 -0.5625 
Q 10.6875 0.296875 5.421875 2 
L 5.421875 11.28125 
Q 10.40625 8.6875 15.234375 7.390625 
Q 20.0625 6.109375 24.8125 6.109375 
Q 31.15625 6.109375 34.5625 8.28125 
Q 37.984375 10.453125 37.984375 14.40625 
Q 37.984375 18.0625 35.515625 20.015625 
Q 33.0625 21.96875 24.703125 23.78125 
L 21.578125 24.515625 
Q 13.234375 26.265625 9.515625 29.90625 
Q 5.8125 33.546875 5.8125 39.890625 
Q 5.8125 47.609375 11.28125 51.796875 
Q 16.75 56 26.8125 56 
Q 31.78125 56 36.171875 55.265625 
Q 40.578125 54.546875 44.28125 53.078125 
z
" id="DejaVuSans-115"/>
     </defs>
     <g transform="translate(127.3175 213.82125)scale(0.08 -0.08)">
      <use xlink:href="#DejaVuSans-84"/>
      <use x="61.037109" xlink:href="#DejaVuSans-105"/>
      <use x="88.820312" xlink:href="#DejaVuSans-109"/>
      <use x="186.232422" xlink:href="#DejaVuSans-101"/>
      <use x="247.755859" xlink:href="#DejaVuSans-32"/>
      <use x="279.542969" xlink:href="#DejaVuSans-40"/>
      <use x="318.556641" xlink:href="#DejaVuSans-109"/>
      <use x="415.96875" xlink:href="#DejaVuSans-115"/>
      <use x="468.068359" xlink:href="#DejaVuSans-41"/>
     </g>
    </g>
   </g>
   <g id="matplotlib.axis_4">
    <g id="text_20">
     <!-- RF -->
     <defs>
      <path d="M 44.390625 34.1875 
Q 47.5625 33.109375 50.5625 29.59375 
Q 53.5625 26.078125 56.59375 19.921875 
L 66.609375 0 
L 56 0 
L 46.6875 18.703125 
Q 43.0625 26.03125 39.671875 28.421875 
Q 36.28125 30.8125 30.421875 30.8125 
L 19.671875 30.8125 
L 19.671875 0 
L 9.8125 0 
L 9.8125 72.90625 
L 32.078125 72.90625 
Q 44.578125 72.90625 50.734375 67.671875 
Q 56.890625 62.453125 56.890625 51.90625 
Q 56.890625 45.015625 53.6875 40.46875 
Q 50.484375 35.9375 44.390625 34.1875 
z
M 19.671875 64.796875 
L 19.671875 38.921875 
L 32.078125 38.921875 
Q 39.203125 38.921875 42.84375 42.21875 
Q 46.484375 45.515625 46.484375 51.90625 
Q 46.484375 58.296875 42.84375 61.546875 
Q 39.203125 64.796875 32.078125 64.796875 
z
" id="DejaVuSans-82"/>
     </defs>
     <g transform="translate(30.33625 173.695)rotate(-90)scale(0.08 -0.08)">
      <use xlink:href="#DejaVuSans-82"/>
      <use x="69.482422" xlink:href="#DejaVuSans-70"/>
     </g>
    </g>
   </g>
   <g id="line2d_40">
    <path clip-path="url(#p97778a6572)" d="M 36 187.76574 
L 36.34174 190.814747 
L 36.420603 190.431187 
L 36.762343 186.783207 
L 36.841206 187.280404 
L 37.182946 191.851867 
L 37.261809 191.184822 
L 37.603549 184.989485 
L 37.682412 185.93395 
L 38.024152 195.809749 
L 38.103015 194.387481 
L 38.260741 183.765632 
L 38.628769 157.689864 
L 38.707632 160.098379 
L 38.917933 178.580717 
L 39.18081 195.629942 
L 39.207098 195.809749 
L 39.233386 195.718492 
L 39.338536 193.232807 
L 39.627701 184.989485 
L 39.653989 184.998483 
L 39.732852 185.88324 
L 40.048304 191.851867 
L 40.127167 191.519791 
L 40.468907 186.783207 
L 40.574058 187.301095 
L 40.88951 190.814747 
L 40.968373 190.569467 
L 41.23125 187.76574 
L 41.23125 187.76574 
" style="fill:none;stroke:#000000;stroke-linecap:square;stroke-width:0.5;"/>
   </g>
   <g id="line2d_41">
    <path clip-path="url(#p97778a6572)" d="M 93.54375 187.76574 
L 93.88549 190.814747 
L 93.964353 190.431187 
L 94.306093 186.783207 
L 94.384956 187.280404 
L 94.726696 191.851867 
L 94.805559 191.184822 
L 95.147299 184.989485 
L 95.226162 185.93395 
L 95.567902 195.809749 
L 95.646765 194.387481 
L 95.804491 183.765632 
L 96.172519 157.689864 
L 96.251382 160.098379 
L 96.461683 178.580717 
L 96.72456 195.629942 
L 96.750848 195.809749 
L 96.777136 195.718492 
L 96.882286 193.232807 
L 97.171451 184.989485 
L 97.197739 184.998483 
L 97.276602 185.88324 
L 97.592054 191.851867 
L 97.670917 191.519791 
L 98.012657 186.783207 
L 98.117808 187.301095 
L 98.43326 190.814747 
L 98.512123 190.569467 
L 98.775 187.76574 
L 98.775 187.76574 
" style="fill:none;stroke:#000000;stroke-linecap:square;stroke-width:0.5;"/>
   </g>
   <g id="patch_8">
    <path d="M 36 189 
L 36 148.23 
" style="fill:none;stroke:#000000;stroke-linecap:square;stroke-linejoin:miter;stroke-width:0.8;"/>
   </g>
   <g id="patch_9">
    <path d="M 259.2 189 
L 259.2 148.23 
" style="fill:none;stroke:#000000;stroke-linecap:square;stroke-linejoin:miter;stroke-width:0.8;"/>
   </g>
   <g id="patch_10">
    <path d="M 36 189 
L 259.2 189 
" style="fill:none;stroke:#000000;stroke-linecap:square;stroke-linejoin:miter;stroke-width:0.8;"/>
   </g>
   <g id="patch_11">
    <path d="M 36 148.23 
L 259.2 148.23 
" style="fill:none;stroke:#000000;stroke-linecap:square;stroke-linejoin:miter;stroke-width:0.8;"/>
   </g>
   <g id="text_21">
    <!-- 90$^{\circ}$ -->
    <defs>
     <path d="M 10.984375 1.515625 
L 10.984375 10.5 
Q 14.703125 8.734375 18.5 7.8125 
Q 22.3125 6.890625 25.984375 6.890625 
Q 35.75 6.890625 40.890625 13.453125 
Q 46.046875 20.015625 46.78125 33.40625 
Q 43.953125 29.203125 39.59375 26.953125 
Q 35.25 24.703125 29.984375 24.703125 
Q 19.046875 24.703125 12.671875 31.3125 
Q 6.296875 37.9375 6.296875 49.421875 
Q 6.296875 60.640625 12.9375 67.421875 
Q 19.578125 74.21875 30.609375 74.21875 
Q 43.265625 74.21875 49.921875 64.515625 
Q 56.59375 54.828125 56.59375 36.375 
Q 56.59375 19.140625 48.40625 8.859375 
Q 40.234375 -1.421875 26.421875 -1.421875 
Q 22.703125 -1.421875 18.890625 -0.6875 
Q 15.09375 0.046875 10.984375 1.515625 
z
M 30.609375 32.421875 
Q 37.25 32.421875 41.125 36.953125 
Q 45.015625 41.5 45.015625 49.421875 
Q 45.015625 57.28125 41.125 61.84375 
Q 37.25 66.40625 30.609375 66.40625 
Q 23.96875 66.40625 20.09375 61.84375 
Q 16.21875 57.28125 16.21875 49.421875 
Q 16.21875 41.5 20.09375 36.953125 
Q 23.96875 32.421875 30.609375 32.421875 
z
" id="DejaVuSans-57"/>
     <path d="M 31.296875 40.671875 
Q 27.390625 40.671875 24.703125 37.953125 
Q 22.015625 35.25 22.015625 31.34375 
Q 22.015625 27.484375 24.703125 24.828125 
Q 27.390625 22.171875 31.296875 22.171875 
Q 35.203125 22.171875 37.890625 24.828125 
Q 40.578125 27.484375 40.578125 31.34375 
Q 40.578125 35.203125 37.859375 37.9375 
Q 35.15625 40.671875 31.296875 40.671875 
z
M 31.296875 46.96875 
Q 34.421875 46.96875 37.296875 45.765625 
Q 40.1875 44.578125 42.28125 42.328125 
Q 44.53125 40.140625 45.65625 37.34375 
Q 46.78125 34.5625 46.78125 31.34375 
Q 46.78125 24.90625 42.265625 20.4375 
Q 37.75 15.96875 31.203125 15.96875 
Q 24.609375 15.96875 20.21875 20.359375 
Q 15.828125 24.75 15.828125 31.34375 
Q 15.828125 37.890625 20.3125 42.421875 
Q 24.8125 46.96875 31.296875 46.96875 
z
" id="DejaVuSans-8728"/>
    </defs>
    <g transform="translate(36 156.070385)scale(0.08 -0.08)">
     <use transform="translate(0 0.78125)" xlink:href="#DejaVuSans-57"/>
     <use transform="translate(63.623047 0.78125)" xlink:href="#DejaVuSans-48"/>
     <use transform="translate(128.203125 39.0625)scale(0.7)" xlink:href="#DejaVuSans-8728"/>
    </g>
   </g>
   <g id="text_22">
    <!-- 180$^{\circ}$ -->
    <g transform="translate(93.54375 156.070385)scale(0.08 -0.08)">
     <use transform="translate(0 0.78125)" xlink:href="#DejaVuSans-49"/>
     <use transform="translate(63.623047 0.78125)" xlink:href="#DejaVuSans-56"/>
     <use transform="translate(127.246094 0.78125)" xlink:href="#DejaVuSans-48"/>
     <use transform="translate(191.826172 39.0625)scale(0.7)" xlink:href="#DejaVuSans-8728"/>
    </g>
   </g>
  </g>
  <g id="axes_3">
   <g id="matplotlib.axis_5"/>
   <g id="patch_12">
    <path d="M 36 87.075 
L 259.2 87.075 
" style="fill:none;stroke:#000000;stroke-linecap:square;stroke-linejoin:miter;stroke-width:0.8;"/>
   </g>
  </g>
 </g>
 <defs>
  <clipPath id="pea155fcfab">
   <rect height="122.31" width="223.2" x="36" y="25.92"/>
  </clipPath>
  <clipPath id="p97778a6572">
   <rect height="40.77" width="223.2" x="36" y="148.23"/>
  </clipPath>
 </defs>
</svg>
